<svg width="1024" height="1024" viewBox="0 0 1024 1024" fill="none" xmlns="http://www.w3.org/2000/svg">
  <defs>
    <linearGradient id="bg" x1="160" y1="120" x2="864" y2="920" gradientUnits="userSpaceOnUse">
      <stop stop-color="#0A1020"/>
      <stop offset="0.5" stop-color="#111A34"/>
      <stop offset="1" stop-color="#07111F"/>
    </linearGradient>
    <radialGradient id="core" cx="0" cy="0" r="1" gradientUnits="userSpaceOnUse" gradientTransform="translate(522 482) rotate(90) scale(360)">
      <stop stop-color="#69F0FF" stop-opacity="0.95"/>
      <stop offset="0.4" stop-color="#4B9DFF" stop-opacity="0.45"/>
      <stop offset="1" stop-color="#091321" stop-opacity="0"/>
    </radialGradient>
    <linearGradient id="ring" x1="268" y1="250" x2="770" y2="768" gradientUnits="userSpaceOnUse">
      <stop stop-color="#74F9FF"/>
      <stop offset="0.52" stop-color="#8F7CFF"/>
      <stop offset="1" stop-color="#FF6ECF"/>
    </linearGradient>
    <linearGradient id="trace" x1="256" y1="288" x2="752" y2="736" gradientUnits="userSpaceOnUse">
      <stop stop-color="#7FF8FF"/>
      <stop offset="1" stop-color="#6AA5FF"/>
    </linearGradient>
    <filter id="softGlow" x="146" y="146" width="732" height="732" filterUnits="userSpaceOnUse" color-interpolation-filters="sRGB">
      <feGaussianBlur stdDeviation="22"/>
    </filter>
    <filter id="nodeGlow" x="0" y="0" width="1024" height="1024" filterUnits="userSpaceOnUse" color-interpolation-filters="sRGB">
      <feGaussianBlur stdDeviation="8"/>
    </filter>
  </defs>

  <rect width="1024" height="1024" rx="240" fill="url(#bg)"/>
  <circle cx="512" cy="512" r="320" fill="url(#core)"/>

  <g filter="url(#softGlow)" opacity="0.35">
    <circle cx="512" cy="512" r="236" stroke="url(#ring)" stroke-width="18"/>
  </g>

  <circle cx="512" cy="512" r="250" stroke="url(#ring)" stroke-width="6" opacity="0.9"/>
  <circle cx="512" cy="512" r="214" stroke="#91A7FF" stroke-opacity="0.18" stroke-width="2"/>

  <path d="M355 692C396 628 410 583 411 527C412 443 464 388 544 388C603 388 651 420 683 474"
        stroke="url(#trace)" stroke-width="10" stroke-linecap="round" stroke-linejoin="round" opacity="0.95"/>
  <path d="M375 730C430 760 496 777 564 770C640 761 704 724 745 664"
        stroke="#7B88FF" stroke-width="7" stroke-linecap="round" opacity="0.65"/>

  <path d="M438 422C454 392 486 372 526 372C565 372 598 389 618 418C637 446 642 483 632 521C624 552 606 579 578 602C559 617 536 631 507 645"
        stroke="#E5F7FF" stroke-opacity="0.9" stroke-width="7" stroke-linecap="round" stroke-linejoin="round"/>
  <path d="M514 650C486 633 460 621 438 606C409 586 389 562 379 529C368 492 375 452 397 423"
        stroke="#C7E7FF" stroke-opacity="0.45" stroke-width="5" stroke-linecap="round" stroke-linejoin="round"/>

  <path d="M500 438L546 472L514 514L558 548L512 592"
        stroke="url(#ring)" stroke-width="9" stroke-linecap="round" stroke-linejoin="round"/>

  <path d="M322 434H410" stroke="url(#trace)" stroke-width="6" stroke-linecap="round"/>
  <path d="M320 598H392" stroke="url(#trace)" stroke-width="6" stroke-linecap="round"/>
  <path d="M612 368H694" stroke="url(#trace)" stroke-width="6" stroke-linecap="round"/>
  <path d="M632 696H732" stroke="url(#trace)" stroke-width="6" stroke-linecap="round"/>
  <path d="M584 520H742" stroke="url(#trace)" stroke-width="6" stroke-linecap="round"/>

  <g filter="url(#nodeGlow)">
    <circle cx="318" cy="434" r="10" fill="#7DFBFF"/>
    <circle cx="320" cy="598" r="10" fill="#79C7FF"/>
    <circle cx="696" cy="368" r="10" fill="#A693FF"/>
    <circle cx="742" cy="520" r="10" fill="#72F6FF"/>
    <circle cx="734" cy="696" r="10" fill="#FF78D7"/>
    <circle cx="512" cy="592" r="10" fill="#7FFBFF"/>
    <circle cx="546" cy="472" r="10" fill="#88A8FF"/>
  </g>

  <circle cx="512" cy="512" r="304" stroke="white" stroke-opacity="0.05" stroke-width="2"/>
</svg>
